<?xml version="1.0" encoding="UTF-8"?>
<svg width="640" height="480" xmlns="http://www.w3.org/2000/svg">
 <title>Light green oak tree</title>
 <metadata id="metadata7">image/svg+xmlTree outlineTree outline plant vegetation</metadata>
 <g>
  <title>Layer 1</title>
  <g opacity="0.5" id="layer1">
   <path d="m349.285706,448.249237c-5.180023,-2.242737 -20.703979,-6.315613 -24.072144,-6.315613c-3.625336,0 -3.845367,-1.731628 -0.332092,-2.613403c6.885742,-1.72821 19.143127,1.595947 25.904236,7.025116c3.760925,3.02002 3.078491,3.8862 -1.5,1.9039zm-5.043945,-7.838989c-2.499146,-1.30072 -10.374146,-4.415344 -17.5,-6.921448c-7.125824,-2.506073 -14.842255,-5.878387 -17.147583,-7.494019c-8.473846,-5.93869 -25.051361,-11.864014 -29.77774,-10.643524c-1.116882,0.288422 -4.492828,2.554474 -7.502014,5.035645c-3.009247,2.481201 -6.741852,5.126587 -8.294739,5.878693l-2.823425,1.367401l6.294708,2.27948c7.343079,2.659149 16.43866,7.147766 19.294739,9.521881c2,1.662537 2,1.662537 0,0.954315c-10.980316,-3.888092 -15.813416,-5.43576 -20.5,-6.564606c-10.037109,-2.417542 -31.54184,-1.313965 -52,2.668488c-6.875,1.338318 -13.399994,2.408752 -14.5,2.378723c-2.22493,-0.06076 10.041428,-5.119263 18.320282,-7.555084c2.926147,-0.860962 8.17627,-3.52066 11.666931,-5.910461c3.490662,-2.389801 9.794312,-5.780334 14.008118,-7.534546c6.97142,-2.902222 11.504669,-6.086731 11.504669,-8.081787c0,-0.421875 -1.899338,-0.096954 -4.220749,0.722107c-4.755264,1.677734 -23.28273,3.826599 -25.536469,2.961761c-0.892319,-0.342407 -1.265472,-1.344879 -0.949844,-2.551819c0.682251,-2.608978 -0.060226,-2.51001 -4.670227,0.622559c-3.444427,2.340576 -4.098907,2.472717 -6.33078,1.278229c-2.207825,-1.18158 -3.523712,-0.968384 -11.640564,1.886017c-5.513214,1.938782 -12.72934,3.592377 -18.151367,4.159393c-4.949997,0.51767 -11.699997,1.2677 -15,1.666748c-5.521942,0.667725 -5.89064,0.593018 -4.627548,-0.937622c0.754837,-0.914734 1.975464,-1.663147 2.712479,-1.663147c3.511948,0 13.494034,-4.826843 22.018051,-10.64679c11.88858,-8.117249 15.826996,-9.786194 29.144699,-12.350494c5.913773,-1.138672 14.733109,-3.002777 19.598541,-4.142426c8.102966,-1.89801 9.016266,-2.360352 10.870331,-5.502777c1.113266,-1.886841 3.43248,-4.139557 5.153793,-5.006042c4.57576,-2.303314 9.446274,-7.259827 10.592422,-10.779388c0.550201,-1.689667 1.674408,-6.62442 2.498199,-10.966156c1.684387,-8.877441 3.156464,-11.676147 7.487,-14.234283c7.006409,-4.138763 8.027435,-19.239319 1.501923,-22.212524c-1.3992,-0.637543 -4.450684,-1.159119 -6.781097,-1.159119c-3.80188,0 -4.757172,-0.539307 -9.299896,-5.25c-6.274429,-6.506439 -8.417679,-9.715698 -11.254166,-16.851685c-1.249466,-3.143402 -3.847763,-7.127747 -5.92067,-9.079102c-4.48465,-4.221619 -13.284729,-9.819214 -15.436981,-9.819214c-0.86232,0 -3.445557,1.568756 -5.740524,3.486176c-5.066925,4.233276 -14.587677,8.88797 -22.589539,11.044006c-3.331436,0.897614 -12.057907,1.838959 -19.927017,2.149536c-11.617813,0.458527 -15.931702,0.195953 -25.352509,-1.543121c-29.039307,-5.360657 -40.043823,-18.606537 -30.33532,-36.513885c4.814262,-8.879898 22.23481,-22.820801 30.198799,-24.166794c2.930328,-0.495255 2.368088,0.015076 -3.510971,3.186844c-8.459808,4.564087 -21.613525,17.184509 -24.468292,23.476288c-2.56572,5.654694 -2.567154,11.490448 -0.003853,15.694763c2.618973,4.295624 11.953575,8.69574 21.972145,10.357147c11.741776,1.947144 40.810654,1.693726 50.703735,-0.442047c8.169785,-1.763733 20.495865,-6.624847 21.687576,-8.55304c1.053467,-1.70459 -5.192383,-2.423096 -10.336304,-1.189087c-4.151886,0.996033 -6.286041,0.855377 -14.705856,-0.969238c-8.77037,-1.900574 -10.533997,-1.99826 -16.101761,-0.891968c-5.647095,1.12204 -6.712402,1.052429 -11,-0.718933c-3.438232,-1.420441 -5.292313,-2.971497 -6.72348,-5.624573c-2.637878,-4.890076 -1.385803,-5.746033 2.900314,-1.982758c6.215332,5.457123 17.655716,5.331665 26.563126,-0.291351c4.913467,-3.101715 5.243973,-1.796265 0.581619,2.297333c-3.265167,2.866852 -3.325592,3.037598 -1.25,3.53183c12.438019,2.96167 18.471161,0.927551 28.102188,-9.474854c3.494385,-3.774261 6.854141,-6.862289 7.466141,-6.862289c1.622009,0 1.360413,4.620316 -0.461029,8.142593c-0.865555,1.673798 -1.405624,3.211365 -1.20015,3.41684c0.923111,0.923126 11.985229,5.440582 13.322586,5.440582c1.260437,0 1.400513,-1.511383 0.903564,-9.75c-0.508102,-8.423859 -0.398712,-9.518646 0.804276,-8.048965c2.337692,2.855972 4.904526,15.245132 3.774384,18.217606c-0.918381,2.415558 -1.416565,2.585052 -7.75618,2.638947l-6.77475,0.057617l5,2.316986c9.132599,4.232025 12.997925,7.907471 19.579742,18.61795c3.431686,5.58429 8.518555,12.396729 11.304169,15.138733l5.064758,4.985504l5.525665,-0.684753c4.608765,-0.571136 8.556091,-1.84082 13.275665,-4.270233c0.412506,-0.212341 0.75,0.341614 0.75,1.230988c0,0.889374 -1.574341,2.545929 -3.498505,3.681213c-1.924194,1.135315 -3.24762,2.470123 -2.940979,2.966309c1.113342,1.801422 5.092712,0.835693 8.477264,-2.057281c3.997192,-3.416626 4.962219,-3.686127 4.962219,-1.385803c0,0.910156 -1.825623,3.39151 -4.056946,5.514099c-4.103912,3.903992 -4.559021,4.828705 -7.375641,14.986267c-1.387024,5.001953 -2.088776,5.960297 -6.075195,8.296509c-6.441925,3.775208 -7.522461,5.882813 -7.234772,14.111389c0.355469,10.166077 -3.076355,18.536224 -9.507446,23.188416c-2.612488,1.889862 -4.75,3.821136 -4.75,4.291779c0,0.470612 -2.8125,2.846741 -6.25,5.280304c-6.11348,4.327972 -6.457489,4.435822 -15.75,4.937225c-13.793762,0.744324 -25.020264,3.964203 -39.645432,11.370789c-12.382828,6.270966 -12.508499,6.368561 -8.21489,6.379517c3.264313,0.008301 6.669479,-1.185669 13.546875,-4.75l9.186554,-4.761108l2.982742,1.75885c2.950821,1.740021 3.036697,1.725311 8.021194,-1.373199c5.300171,-3.294769 8.122955,-3.286469 8.122955,0.023926c0,1.084808 0.337509,2.150513 0.75,2.368195c1.737793,0.917175 22.226898,-1.284729 25.999054,-2.794037c4.605774,-1.842865 10.750153,-8.927094 11.769958,-13.570251c0.799927,-3.641998 3.480988,-3.909851 3.480988,-0.347748c0,3.303467 -1.480835,6.132416 -5.348633,10.217773c-1.709778,1.805908 -4.918274,6.242157 -7.130005,9.858307c-3.860931,6.312531 -4.316772,6.688416 -11.426575,9.421722c-4.072876,1.565765 -7.809143,3.250793 -8.302826,3.744507c-1.302902,1.302887 16.430923,0.593536 20.948303,-0.837921c2.377869,-0.75351 6.565704,-3.948303 11.394135,-8.692352l7.634369,-7.501007l6.310059,0.732361c9.533997,1.106537 15.563477,3.601807 24.921173,10.313477c9.752655,6.994934 16.978973,10.865387 22,11.783325c3.478699,0.635956 3.450897,0.588837 -4.561188,-7.733032c-4.433624,-4.605103 -9.769043,-10.339752 -11.856476,-12.743652l-3.795319,-4.370758l0.465729,-10.629242c0.410522,-9.369598 0.897156,-11.66449 4.106476,-19.364777c2.202789,-5.285278 3.652802,-10.419861 3.671204,-13c0.025269,-3.545898 0.212677,-3.950806 1.112122,-2.402924c1.021362,1.757721 0.821289,6.416779 -0.74823,17.423126c-2.234894,15.672394 4.796326,21.872589 36.605682,32.279175c7.975006,2.60907 14.725006,4.51709 15,4.240051c0.86264,-0.869019 -6.55835,-6.68399 -12.1474,-9.518555c-2.943939,-1.493042 -8.052582,-3.478455 -11.3526,-4.412048c-8.258942,-2.336487 -17.632782,-6.656158 -19.828033,-9.137238c-1.455719,-1.645203 -1.942505,-4.389832 -2.389954,-13.475037c-0.805481,-16.355316 -0.262177,-18.612061 7.783539,-32.330475c4.855957,-8.279663 6.812531,-12.542572 6.393799,-13.930542c-0.331848,-1.100006 -0.855194,-5.263367 -1.162994,-9.251923c-0.628784,-8.148376 0.1828,-9.94101 8.859314,-19.568634l4.34433,-4.820557l9.153259,-0.842499c5.034302,-0.463379 10.087341,-1.342407 11.229004,-1.9534c1.141663,-0.610992 3.83786,-3.70575 5.991577,-6.877228c4.698029,-6.918152 4.94986,-7.1362 12.87616,-11.149567c3.4375,-1.740509 6.25,-3.410767 6.25,-3.71167c0,-0.952942 -7.324585,0.756836 -12,2.801086c-2.475006,1.082184 -6.621124,4.051086 -9.213623,6.597565c-4.165039,4.091125 -4.79718,4.412231 -5.431519,2.759186c-0.723969,-1.886658 1.229614,-8.123322 5.704163,-18.210022c2.33017,-5.252747 2.083771,-7.896637 -0.485779,-5.21283c-0.758545,0.792267 -2.810211,4.916901 -4.559265,9.165863c-1.749054,4.248962 -4.171173,9.198975 -5.382477,11c-2.003571,2.979034 -2.785858,3.33139 -8.666931,3.903564c-3.555511,0.345917 -8.433655,1.358429 -10.840302,2.25c-2.406647,0.891571 -6.846619,1.621063 -9.866638,1.621063c-5.221832,0 -5.458771,-0.11026 -4.835327,-2.25c1.731537,-5.943054 3.539337,-15.607513 3.507294,-18.75c-0.039825,-3.907959 -5.552399,-12.461273 -14.778534,-22.93042c-2.941925,-3.338272 -4.777344,-6.069595 -4.078735,-6.069595c0.698608,0 1.980621,0.628174 2.848938,1.395935c2.616882,2.313843 15.21106,8.319244 21.078735,10.051163c3.024994,0.892868 10.134827,2.068756 15.799622,2.613098c12.782349,1.228271 23.467041,0.02562 32.735077,-3.684631l6.769409,-2.709976l-3.902039,-3.024521c-5.097076,-3.95076 -13.59729,-12.77916 -12.938446,-13.438004c0.283203,-0.283218 3.20462,1.59819 6.492035,4.180923c12.405487,9.746307 23.48761,12.236832 36.316986,8.161636c3.174957,-1.008514 6.02066,-1.585663 6.323761,-1.282578c1.302155,1.30217 -2.96936,6.871231 -7.149017,9.320648c-3.940125,2.309082 -5.216492,2.57193 -9.639496,1.985199c-2.803925,-0.371948 -6.87558,-1.583099 -9.048126,-2.691452c-3.516235,-1.793839 -4.131836,-1.851501 -5.604919,-0.524963c-0.910156,0.819626 -3.607605,2.597 -5.994324,3.949722l-4.339508,2.459503l3.469818,2.646545c5.910431,4.508118 15.359192,7.691254 24.709167,8.324127l8.5,0.575378l-3.75,-4.156769c-5.352478,-5.933044 -5.036407,-8.715683 0.398529,-3.508698c1.992981,1.909393 4.142792,2.77536 7.750488,3.12204c6.766388,0.650146 9.456268,-0.187042 14.110443,-4.391846l3.959076,-3.576767l2.974121,2.502579c6.026917,5.07132 15.258636,4.398376 21.807343,-1.589569c3.652557,-3.339813 2.566772,-0.092163 -1.242859,3.717468c-6.010498,6.010498 -18.753052,7.458252 -22.703613,2.579498l-1.775421,-2.192535l-2.621918,3.115967c-3.476471,4.131561 -5.828064,5.309662 -12.406189,6.215271c-14.095795,1.940582 -18.116791,2.893494 -26.648102,6.315033c-10.616577,4.257843 -20.158264,9.924164 -18.46933,10.967987c2.222321,1.373474 18.749878,1.792511 27.620605,0.700256c9.758575,-1.201538 20.468475,-3.7034 21.878418,-5.11084c0.508179,-0.507263 -0.60498,-1.50116 -2.62793,-2.346375c-5.018372,-2.096832 -6.016083,-4.115082 -1.645721,-3.329163c9.556854,1.718567 22.105225,2.65918 27.892059,2.090729c13.385406,-1.314819 28.72702,-8.121826 37.10672,-16.464111c4.577362,-4.556885 8.899841,-13.435333 8.887695,-18.255417c-0.029236,-11.609756 -10.449615,-19.573761 -38.881287,-29.715897c-8.381683,-2.989914 -36.691711,-9.996597 -40.390594,-9.996597c-0.3974,0 -0.722534,-0.460526 -0.722534,-1.023392c0,-1.357666 13.011627,-0.363708 28.5,2.177124c22.041168,3.615784 42.811005,12.252441 51.461517,21.399078c6.163025,6.516495 8.038757,10.638916 8.037689,17.66507c-0.003357,22.499237 -32.561981,44.05365 -61.594238,40.77652c-6.101196,-0.688721 -7.428772,-0.516632 -11.404968,1.478394c-15.779236,7.917084 -32.700195,10.332306 -49.304413,7.037476l-8.732666,-1.732849l-2.004242,2.547974c-2.302979,2.927795 -10.166229,6.126801 -17.5065,7.122162c-6.259277,0.848785 -6.054901,0.710876 -12.402557,8.370544l-5.23587,6.318085l1.59314,7.054565c2.608368,11.550201 2.266418,13.757446 -3.573761,23.07019c-9.253174,14.755035 -10.334686,17.830231 -10.321838,29.348938c0.008118,7.269531 0.411865,10.592621 1.437164,11.828033c2.218536,2.673157 9.738525,6.122223 23.995819,11.005707c13.963348,4.782806 17.808167,6.989075 28.055725,16.098999c7.343384,6.528137 8.31955,7.972137 4.880524,7.21936c-12.306335,-2.693665 -45.297363,-11.655029 -52.86087,-14.358582c-5.235809,-1.871521 -11.319641,-3.384613 -13.519653,-3.362366l-4,0.040405l7.508209,7.20929c4.129486,3.965088 9.02655,9.234283 10.882355,11.70929c1.855774,2.474976 6.091156,7.013458 9.411926,10.085449c4.311554,3.988525 5.855164,6.061371 5.399017,7.25c-0.831207,2.166138 -2.23172,2.010834 -7.745453,-0.858826zm5.793945,-157.106934c1.237518,-0.331635 2.25,-0.940674 2.25,-1.353455c0,-0.822937 -8.019226,-6.366211 -8.450226,-5.841156c-0.146667,0.178711 -0.5271,2.012421 -0.845367,4.074921c-0.547607,3.548767 -0.434479,3.749268 2.108459,3.736328c1.477936,-0.007507 3.699646,-0.285004 4.937134,-0.616638zm15.661255,-10.11969c1.593201,-2.612518 3.705353,-6.100006 4.693665,-7.75l1.796967,-3l-13.450958,0l-13.450958,0l0,3.053497c0.000031,2.740509 0.794373,3.53183 7.750031,7.72052c4.262512,2.566833 8.203278,4.680267 8.757294,4.696503c0.553986,0.016205 2.310791,-2.108032 3.903961,-4.72052zm14.588745,1.63443c0,-0.348938 1.237518,-0.886505 2.75,-1.19458c1.512512,-0.308075 4.528137,-1.308228 6.701385,-2.222565c3.593811,-1.511993 3.77478,-1.758179 2,-2.720673c-1.073273,-0.582062 -3.659637,-2.392395 -5.747498,-4.02301c-2.08786,-1.630585 -3.939392,-2.797974 -4.114532,-2.594177c-1.491089,1.735138 -5.54425,12.727386 -5.578522,15.129028c-0.005951,0.417175 0.88916,0.196411 1.989166,-0.49054c1.100006,-0.686951 2,-1.534515 2,-1.883484zm66,161.931488c-4.45517,-1.884155 -14.360596,-3.744812 -20.127563,-3.780792c-3.869873,-0.02417 -6.036163,-0.527496 -6.935852,-1.611572c-0.947083,-1.141144 -2.242004,-1.401245 -4.68988,-0.942017c-5.934937,1.113403 -16.487793,-3.573792 -13.89151,-6.170074c0.331238,-0.331238 3.016968,0.084656 5.968231,0.924225c4.989716,1.419434 5.639832,1.3974 9.271271,-0.314362l3.905304,-1.84082l2.5,2.849976c2.04248,2.3284 3.598053,2.968018 8.5,3.494995c6.09256,0.654999 11.976105,2.994019 16.5,6.559631c2.804413,2.210327 2.621429,2.362366 -1,0.830811zm-313,-6.662201c0,-0.51532 1.198486,-1.237701 2.6633,-1.605347c1.464798,-0.367645 5.702301,-2.115967 9.416626,-3.885132c6.602127,-3.144653 6.803574,-3.176025 8.996796,-1.400055c2.92923,2.371948 1.923233,3.144714 -6.576721,5.051941c-10.61261,2.381317 -14.5,2.874207 -14.5,1.838593zm175.043182,-16.903717c-4.685913,-5.664001 -9.348663,-23.25 -6.16449,-23.25c0.91571,0 1.446899,1.239655 5.141907,12c1.227661,3.574982 3.342987,8.412476 4.700775,10.75c3.237183,5.572998 0.793579,5.905151 -3.678192,0.5zm-38.602539,-32.5c0.736237,-1.787506 1.912628,-5.950012 2.614197,-9.25c0.701599,-3.300018 1.666809,-6.514862 2.144958,-7.144135c1.451385,-1.910126 2.315765,-11.792542 0.958038,-10.95343c-0.63681,0.393585 -1.157837,1.626526 -1.157837,2.739899c0,1.189362 -0.515564,1.84137 -1.25,1.58075c-1.727081,-0.612854 -1.064423,-4.846222 1.097626,-7.012054c4.361389,-4.369019 7.567657,1.903564 4.732239,9.257935c-0.960785,2.492065 -2.626862,7.624817 -3.702393,11.406097c-2.193481,7.711914 -4.470856,12.624939 -5.852112,12.624939c-0.507813,0 -0.320923,-1.462524 0.415283,-3.25zm47.633423,-28.160797c-2.339355,-2.818726 -2.291595,-7.893188 0.118011,-12.539246c3.376251,-6.509918 4.88028,-6.183746 2.602142,0.56427c-1.312317,3.887268 -1.713654,6.903168 -1.26889,9.535614c0.699127,4.138214 0.389954,4.657928 -1.451263,2.439362zm6.125946,-5.789215c-1.64798,-1.64798 -1.522217,-2.879791 0.864288,-8.467102c2.342529,-5.484314 6.529449,-10.332886 8.922791,-10.332886c2.29126,0 4.012909,2.016418 4.012909,4.699982c0,2.880524 -1.5802,3.013275 -2.317291,0.194641c-0.302826,-1.157928 -1.142792,-1.910461 -1.866638,-1.672241c-1.649261,0.542725 -5.777557,7.680603 -5.799622,10.027618c-0.028046,2.983795 1.596619,1.934448 3.483551,-2.25c1.962372,-4.351807 3.5,-5.201569 3.5,-1.934265c0,2.519379 -1.566833,5.684296 -4.299286,8.684265c-2.268677,2.490814 -4.671753,2.878967 -6.500702,1.049988zm-2.176819,-28.415131c-0.012756,-1.16333 0.876801,-3.259308 1.976807,-4.657745c2.32431,-2.954865 2.673828,-10.165527 0.844818,-17.429169c-0.962646,-3.822937 -0.855988,-5.772095 0.63974,-11.69281c3.124207,-12.366943 4.671112,-10.320526 2.466949,3.263519c-0.825348,5.086517 -0.733032,7.301086 0.458527,11c3.377991,10.486084 3.266632,11.536377 -1.784882,16.831635c-3.834503,4.019501 -4.58255,4.455872 -4.601959,2.68457zm-110.500366,-14.949585c-3.204483,-1.670929 -4.483246,-3.162567 -4.507507,-5.257874c-0.010452,-0.903046 0.82048,-0.665131 2.619537,0.75c3.81012,2.99704 8.39946,2.584045 16.474655,-1.482574c3.882782,-1.955322 7.458282,-3.417816 7.945572,-3.25c2.149078,0.740204 -2.00798,5.534576 -6.98439,8.055176c-6.107208,3.093353 -11.151138,3.477875 -15.547867,1.185272zm55.714783,-5.546722c-7.333862,-3.630188 -16.507935,-16.030334 -20.480881,-27.682983c-2.204041,-6.464447 -3.650818,-19.876205 -2.036514,-18.878494c0.555634,0.343399 1.258545,2.154587 1.562042,4.024887c0.73941,4.556396 6.250381,18.182922 8.804214,21.76944c1.831467,2.572052 2.633408,2.878601 7.531296,2.878601c6.729492,0 10.769409,-1.904144 15.557953,-7.332886l3.675751,-4.167114l3.115295,2.97641c7.397308,7.067474 10.708832,15.52417 8.035278,20.519775c-1.64444,3.072632 -6.775879,6.210358 -9.001343,5.504028c-2.674988,-0.84903 -2.53537,-1.77948 0.999298,-6.658936c1.649994,-2.27774 3,-5.279388 3,-6.670319c0,-2.761902 -2.066315,-9.170959 -2.956787,-9.170959c-0.305237,0 -1.156464,1.358856 -1.891632,3.019684c-0.735138,1.660797 -2.947479,4.248322 -4.91626,5.75c-2.952454,2.251923 -4.600739,2.730316 -9.407471,2.730316c-3.205322,0 -5.82785,0.141541 -5.82785,0.314545c0,0.961121 6.997986,6.036987 11.326416,8.215454c2.764801,1.391479 5.20993,3.078979 5.433594,3.75c0.681671,2.045013 -7.811523,1.440399 -12.5224,-0.891449zm23.261536,-29.54483c-4.831451,-3.689087 -4.897797,-3.705902 -14.926086,-3.786621c-8.76178,-0.070557 -10.831024,-0.434662 -15.895691,-2.797028c-6.849899,-3.195129 -6.878159,-5.38858 -0.039398,-3.05838c9.341888,3.183105 25.774841,-0.515839 32.859558,-7.396423c3.785614,-3.676544 8.528717,-12.097168 8.461487,-15.022049c-0.026215,-1.139877 -1.831268,-2.622925 -5.003235,-4.110657c-3.585052,-1.681503 -5.655121,-3.509781 -7.458984,-6.58786c-3.938904,-6.721222 -2.907928,-9.511597 1.18103,-3.196487c2.50766,3.872894 9.476532,7.611771 14.187561,7.611771c1.778656,0 4.600708,-0.706772 6.27121,-1.570633c2.811493,-1.453873 3.012207,-1.444611 2.700348,0.124619c-0.185333,0.932373 -2.199066,2.651657 -4.475006,3.820633c-3.701721,1.901276 -4.190552,2.581619 -4.635834,6.452271c-0.405212,3.522339 0.099121,5.474716 2.712372,10.5c1.765564,3.395218 3.545685,7.298126 3.955841,8.673126c0.698883,2.34314 0.896912,2.170563 3.156189,-2.750015c2.819794,-6.141434 3.951935,-6.74176 2.984009,-1.582336c-1.402191,7.47435 -4.569519,14.332352 -6.619354,14.332352c-1.7901,0 -4.544159,-4.469452 -6.315979,-10.25c-0.35611,-1.161743 -1.551178,-1.750015 -3.555206,-1.750015l-3.018768,0l0.237396,7.645676c0.147583,4.753052 -0.168884,7.789063 -0.836517,8.024658c-0.590668,0.208405 -3.257782,-1.288544 -5.926941,-3.326599zm3.934357,-6.752625c-0.536591,-2.138 -0.934021,-2.420593 -2.073883,-1.474609c-1.203857,0.999115 -1.163513,1.442688 0.275696,3.03302c2.104523,2.32547 2.653564,1.84964 1.798187,-1.558411zm-69.80722,-12.715561c-8.977219,-0.915344 -18.404358,-4.813934 -25.296082,-10.461182c-3.800385,-3.11412 -4.539612,-3.371964 -6.556747,-2.287018c-10.304855,5.542664 -28.375443,0.370422 -32.806,-9.389893c-2.489685,-5.48468 -2.506165,-12.761154 -0.039871,-17.595505c2.576309,-5.049957 9.127487,-10.819992 15.702438,-13.830109c7.155792,-3.276031 10.649948,-2.625427 3.86998,0.720581c-10.392151,5.128693 -18.895966,16.807831 -16.937302,23.261734c1.068314,3.520126 5.28241,8.574387 8.564011,10.271362c4.835922,2.500748 15.816269,3.010422 21.910736,1.017029c5.653946,-1.849304 7.013123,-1.494415 5.227432,1.364929c-1.00145,1.603577 -0.655655,2.183975 2.537857,4.25972c7.825485,5.086502 14.281113,7.129684 23.988358,7.592239c10.1091,0.481689 16.213684,-0.983521 28.672607,-6.881973c3.280045,-1.552872 6.153091,-2.633987 6.384598,-2.402512c1.30426,1.30426 -2.766022,7.111115 -6.759827,9.64389c-7.390778,4.687103 -15.52774,6.035538 -28.462189,4.716705zm144.873718,-39.736115c-4.147858,-2.562119 -6.225281,-5.116455 -7.026276,-8.639435l-0.682129,-3l2.564331,3.638275c3.882751,5.508835 12.088776,7.537415 17.644073,4.361725c3.193756,-1.825714 4,-1.840332 4,-0.072586c0,0.78508 -1.185699,2.360092 -2.634857,3.5c-3.339355,2.626755 -9.796021,2.725494 -13.865143,0.212021zm24.5,-3.115204c-7.183105,-1.368256 -11.485779,-4.911346 -14.00235,-11.530396c-1.345642,-3.539368 0.115387,-3.066803 2.657288,0.859482c5.721771,8.838028 17.2117,8.637238 28.322906,-0.494919c3.425812,-2.815643 6.022156,-3.678848 6.022156,-2.002197c0,0.470917 -1.545929,2.880844 -3.435394,5.355392c-4.9263,6.451782 -11.961151,9.260971 -19.564606,7.812637zm61,-2.616501c0,-0.325745 0.899994,-1.736435 2,-3.134857c2.66745,-3.391113 2.74115,-14.044754 0.136841,-19.777405c-2.423645,-5.3349 -11.720886,-13.680893 -19.412903,-17.426651c-7.520447,-3.662216 -22.162994,-7.652512 -33.723938,-9.190231c-13.333466,-1.773499 -13.638702,-2.096558 -5.621002,-5.949081c10.841095,-5.209167 13.202057,-11.502914 6.853241,-18.268921c-3.077606,-3.279846 -13.588928,-8.658592 -16.923218,-8.65979c-2.246674,-0.000809 -3.947327,-1.518379 -2.575317,-2.298103c0.421448,-0.239532 3.589996,0.153404 7.041168,0.873169c17.075592,3.561264 25.7341,13.745705 20.336426,23.920448c-1.200592,2.263138 -3.629272,4.989777 -5.397095,6.059235l-3.214203,1.944458l3.5,0.252396c29.538269,2.12999 51.970184,13.03537 59.13266,28.747604c4.636444,10.170868 -0.6698,23.5 -9.355164,23.5c-1.527618,0 -2.777496,-0.266525 -2.777496,-0.59227zm22.266663,-2.31279c3.652374,-4.340607 3.541412,-8.104996 -0.370239,-12.560135c-2.373138,-2.702835 -2.714478,-3.534805 -1.450348,-3.534805c3.024384,0 7.5,2.995056 9.100433,6.08992c2.942444,5.690094 0.027649,11.245255 -6.595459,12.56987l-3.417725,0.683548l2.733337,-3.248398zm-290.037689,-10.764236c-2.70192,-1.087097 -4.613907,-6.787811 -4.638779,-13.830704c-0.038361,-10.859512 3.821381,-18.120972 16.146881,-30.377716c10.766571,-10.706512 18.94191,-15.661606 33.762939,-20.463783c13.010025,-4.215401 31.081711,-5.816032 38.999985,-3.454292c3.95105,1.178444 3.883759,1.20237 -5.5,1.95507c-19.089645,1.531242 -27.509735,3.609093 -40.382446,9.965279c-14.364319,7.092682 -25.628815,18.277863 -33.23262,32.998596c-2.232895,4.322784 -2.787903,6.7491 -2.831131,12.376846c-0.029587,3.850006 0.314041,8.012497 0.763611,9.25c0.828293,2.280029 -0.130569,2.770798 -3.08844,1.580704zm127.271027,-8.54393c-1.649963,-0.580429 -3.534363,-1.476685 -4.187531,-1.991684c-0.653198,-0.514999 -3.199188,-0.634705 -5.657806,-0.266006c-2.458588,0.368683 -5.895142,0.357376 -7.636719,-0.025146c-5.480927,-1.203812 -13.017944,-9.282913 -13.017944,-13.954269c0,-2.59581 1.441254,-1.742706 3.493378,2.06781c4.0513,7.522797 11.191742,10.730164 17.527588,7.873077c3.683624,-1.661087 4.093842,-1.663986 7.489136,-0.05278c6.088501,2.889175 9.879211,3.03627 14.952759,0.5802c5.46701,-2.64653 7.879456,-6.631729 7.353394,-12.147537c-0.454376,-4.765091 0.8125,-5.003235 2.691589,-0.505936c2.009644,4.809662 0.423126,9.682816 -4.53363,13.925583c-5.984192,5.122253 -12.315247,6.663254 -18.474213,4.496689zm-35.12915,-57.343613c-0.921478,-1.406258 -1.867493,-4.668762 -2.102417,-7.25c-0.888885,-9.768768 7.365234,-18.529129 21.965485,-23.312576c6.445282,-2.111664 9.073547,-2.377731 23.266083,-2.355354c18.749298,0.029572 25.18222,1.344513 39.026459,7.977272c9.336426,4.473099 17.970764,11.690735 21.00528,17.558792c1.318604,2.549965 1.326447,2.938705 0.059052,2.938705c-2.81311,0 -6.302612,-1.862068 -13.025513,-6.950623c-13.539795,-10.248199 -23.961426,-14.626793 -40.605988,-17.060394c-9.317139,-1.362251 -24.43219,-0.225571 -33.734406,2.536888c-7.092194,2.106148 -12.952972,6.834549 -14.381592,11.602867c-1.053833,3.51738 -0.930511,4.589264 1.055939,9.17691c1.23703,2.856895 2.488892,5.756851 2.781952,6.444351c1.027863,2.411377 -3.624207,1.266533 -5.310333,-1.306839z" id="path2831" fill="#007f00"/>
  </g>
 </g>
</svg>